<mxfile host="app.diagrams.net" modified="2024-07-10T11:21:08.477Z" agent="Mozilla/5.0 (Windows NT 10.0; Win64; x64) AppleWebKit/537.36 (KHTML, like Gecko) Chrome/126.0.0.0 Safari/537.36" etag="KSyt6cD_m8IvWV821oB9" version="24.6.4" type="device">
  <diagram name="Page-1" id="azOTSwXnvCBMyWFH3sNp">
    <mxGraphModel dx="788" dy="954" grid="1" gridSize="10" guides="1" tooltips="1" connect="1" arrows="1" fold="1" page="1" pageScale="1" pageWidth="827" pageHeight="1169" math="0" shadow="0">
      <root>
        <mxCell id="0" />
        <mxCell id="1" parent="0" />
        <mxCell id="OLj2NTOSyPQ2jTsfkR1u-5" style="edgeStyle=orthogonalEdgeStyle;rounded=0;orthogonalLoop=1;jettySize=auto;html=1;exitX=1;exitY=0.5;exitDx=0;exitDy=0;entryX=0;entryY=0.5;entryDx=0;entryDy=0;strokeWidth=1;dashed=1;dashPattern=1 1;fillColor=#f8cecc;strokeColor=#b85450;" edge="1" parent="1" source="OLj2NTOSyPQ2jTsfkR1u-1" target="OLj2NTOSyPQ2jTsfkR1u-2">
          <mxGeometry relative="1" as="geometry" />
        </mxCell>
        <mxCell id="OLj2NTOSyPQ2jTsfkR1u-1" value="&lt;font style=&quot;font-size: 14px;&quot; face=&quot;Times New Roman&quot;&gt;&lt;b&gt;Start&lt;/b&gt;&lt;/font&gt;&lt;div&gt;(Begin the process.)&lt;font style=&quot;font-size: 14px;&quot; face=&quot;Times New Roman&quot;&gt;&lt;br&gt;&lt;/font&gt;&lt;/div&gt;" style="rounded=1;whiteSpace=wrap;html=1;fillColor=#f8cecc;strokeColor=#b85450;dashed=1;" vertex="1" parent="1">
          <mxGeometry x="30" y="340" width="120" height="60" as="geometry" />
        </mxCell>
        <mxCell id="OLj2NTOSyPQ2jTsfkR1u-2" value="&lt;b&gt;&lt;font face=&quot;Times New Roman&quot;&gt;Initialize &lt;span class=&quot;katex&quot;&gt;&lt;span class=&quot;katex-mathml&quot;&gt;&lt;math xmlns=&quot;http://www.w3.org/1998/Math/MathML&quot;&gt;&lt;mrow&gt;&lt;mi&gt;&lt;br&gt;&lt;/mi&gt;&lt;/mrow&gt;\alpha&lt;/math&gt;&lt;/span&gt;&lt;span aria-hidden=&quot;true&quot; class=&quot;katex-html&quot;&gt;&lt;span class=&quot;base&quot;&gt;&lt;span class=&quot;strut&quot;&gt;&lt;/span&gt;&lt;span class=&quot;mord mathnormal&quot;&gt;α&lt;/span&gt;&lt;/span&gt;&lt;/span&gt;&lt;/span&gt;&lt;/font&gt;&lt;/b&gt;" style="rhombus;whiteSpace=wrap;html=1;fillColor=#dae8fc;strokeColor=#6c8ebf;strokeWidth=1;dashed=1;" vertex="1" parent="1">
          <mxGeometry x="294" y="190" width="120" height="80" as="geometry" />
        </mxCell>
        <mxCell id="OLj2NTOSyPQ2jTsfkR1u-3" value="&lt;h1 style=&quot;margin-top: 0px; font-size: 11px;&quot;&gt;&lt;div style=&quot;text-align: justify;&quot;&gt;&lt;span style=&quot;font-family: &amp;quot;Times New Roman&amp;quot;; font-weight: normal;&quot;&gt;Set a starting value for&amp;nbsp;&lt;/span&gt;&lt;span style=&quot;font-family: &amp;quot;Times New Roman&amp;quot;;&quot;&gt;α&amp;nbsp;&lt;/span&gt;&lt;span style=&quot;font-weight: normal; font-family: &amp;quot;Times New Roman&amp;quot;;&quot;&gt;usually a small number.&lt;/span&gt;&lt;/div&gt;&lt;/h1&gt;" style="text;html=1;whiteSpace=wrap;overflow=hidden;rounded=0;align=center;labelBorderColor=none;labelBackgroundColor=none;textShadow=0;" vertex="1" parent="1">
          <mxGeometry x="290" y="130" width="106" height="50" as="geometry" />
        </mxCell>
        <mxCell id="OLj2NTOSyPQ2jTsfkR1u-12" style="edgeStyle=orthogonalEdgeStyle;shape=connector;rounded=0;orthogonalLoop=1;jettySize=auto;html=1;exitX=1;exitY=0.5;exitDx=0;exitDy=0;exitPerimeter=0;entryX=0;entryY=0.25;entryDx=0;entryDy=0;dashed=1;dashPattern=1 1;strokeColor=#82b366;strokeWidth=1;align=center;verticalAlign=middle;fontFamily=Helvetica;fontSize=11;fontColor=default;labelBackgroundColor=default;endArrow=classic;fillColor=#d5e8d4;" edge="1" parent="1" source="OLj2NTOSyPQ2jTsfkR1u-6" target="OLj2NTOSyPQ2jTsfkR1u-11">
          <mxGeometry relative="1" as="geometry" />
        </mxCell>
        <mxCell id="OLj2NTOSyPQ2jTsfkR1u-6" value="&lt;font face=&quot;Times New Roman&quot;&gt;&lt;b&gt;Train Model&lt;/b&gt;&lt;/font&gt;" style="shape=cylinder3;whiteSpace=wrap;html=1;boundedLbl=1;backgroundOutline=1;size=15;fillColor=#d5e8d4;strokeColor=#82b366;strokeWidth=0.5;" vertex="1" parent="1">
          <mxGeometry x="640" y="240" width="60" height="80" as="geometry" />
        </mxCell>
        <mxCell id="OLj2NTOSyPQ2jTsfkR1u-7" style="edgeStyle=orthogonalEdgeStyle;rounded=0;orthogonalLoop=1;jettySize=auto;html=1;exitX=1;exitY=0.5;exitDx=0;exitDy=0;entryX=0;entryY=0.5;entryDx=0;entryDy=0;entryPerimeter=0;strokeWidth=1;dashed=1;dashPattern=1 1;fillColor=#dae8fc;strokeColor=#6c8ebf;" edge="1" parent="1" source="OLj2NTOSyPQ2jTsfkR1u-2" target="OLj2NTOSyPQ2jTsfkR1u-6">
          <mxGeometry relative="1" as="geometry" />
        </mxCell>
        <mxCell id="OLj2NTOSyPQ2jTsfkR1u-8" value="&lt;h1 style=&quot;margin-top: 0px; font-size: 11px;&quot;&gt;&lt;div style=&quot;&quot;&gt;&lt;div style=&quot;text-align: justify;&quot;&gt;&lt;font style=&quot;font-weight: normal;&quot; face=&quot;Times New Roman&quot;&gt;Use the training data set to train the ridge regression model with the current&lt;/font&gt;&lt;font style=&quot;&quot; face=&quot;Times New Roman&quot;&gt;&amp;nbsp;&lt;/font&gt;&lt;span style=&quot;font-family: WT9mI9ZGhQm-gtAy5hHL; background-color: initial;&quot;&gt;𝛼&lt;/span&gt;&lt;span style=&quot;font-weight: normal; font-family: WT9mI9ZGhQm-gtAy5hHL; background-color: initial;&quot;&gt;.&lt;/span&gt;&lt;/div&gt;&lt;/div&gt;&lt;/h1&gt;" style="text;html=1;whiteSpace=wrap;overflow=hidden;rounded=0;align=center;labelBorderColor=none;labelBackgroundColor=none;textShadow=0;" vertex="1" parent="1">
          <mxGeometry x="627" y="150" width="123" height="60" as="geometry" />
        </mxCell>
        <mxCell id="OLj2NTOSyPQ2jTsfkR1u-11" value="&lt;font face=&quot;Times New Roman&quot;&gt;Make Prediction&lt;/font&gt;" style="shape=parallelogram;perimeter=parallelogramPerimeter;whiteSpace=wrap;html=1;dashed=0;fontFamily=Helvetica;fontSize=11;labelBackgroundColor=default;fillColor=#ffe6cc;strokeColor=#d79b00;strokeWidth=0.5;" vertex="1" parent="1">
          <mxGeometry x="618.5" y="535" width="160" height="50" as="geometry" />
        </mxCell>
        <mxCell id="OLj2NTOSyPQ2jTsfkR1u-13" value="&lt;h1 style=&quot;margin-top: 0px; font-size: 11px;&quot;&gt;&lt;div style=&quot;text-align: justify;&quot;&gt;&lt;font style=&quot;font-weight: normal;&quot; face=&quot;Times New Roman&quot;&gt;Use the trained model to make predictions on the validation data.&lt;/font&gt;&lt;br&gt;&lt;/div&gt;&lt;/h1&gt;" style="text;html=1;whiteSpace=wrap;overflow=hidden;rounded=0;align=center;labelBorderColor=none;labelBackgroundColor=none;textShadow=0;" vertex="1" parent="1">
          <mxGeometry x="470" y="530" width="123" height="60" as="geometry" />
        </mxCell>
        <mxCell id="OLj2NTOSyPQ2jTsfkR1u-19" style="edgeStyle=orthogonalEdgeStyle;shape=connector;rounded=0;orthogonalLoop=1;jettySize=auto;html=1;exitX=0.5;exitY=1;exitDx=0;exitDy=0;exitPerimeter=0;entryX=0.5;entryY=0;entryDx=0;entryDy=0;dashed=1;dashPattern=1 1;strokeColor=#d6b656;strokeWidth=1;align=center;verticalAlign=middle;fontFamily=Helvetica;fontSize=11;fontColor=default;labelBackgroundColor=default;endArrow=classic;fillColor=#fff2cc;" edge="1" parent="1" source="OLj2NTOSyPQ2jTsfkR1u-15" target="OLj2NTOSyPQ2jTsfkR1u-18">
          <mxGeometry relative="1" as="geometry" />
        </mxCell>
        <mxCell id="OLj2NTOSyPQ2jTsfkR1u-15" value="&lt;font face=&quot;Times New Roman&quot;&gt;Calculate &lt;/font&gt;&lt;span class=&quot;katex&quot;&gt;&lt;span class=&quot;katex-mathml&quot;&gt;&lt;math xmlns=&quot;http://www.w3.org/1998/Math/MathML&quot;&gt;&lt;mrow&gt;&lt;msup&gt;&lt;mi&gt;R&lt;/mi&gt;&lt;mn&gt;2&lt;/mn&gt;&lt;/msup&gt;&lt;/mrow&gt;R^2&lt;/math&gt;&lt;/span&gt;&lt;br&gt;&lt;/span&gt;" style="strokeWidth=0.5;html=1;shape=mxgraph.flowchart.start_1;whiteSpace=wrap;fontFamily=Helvetica;fontSize=11;labelBackgroundColor=default;fillColor=#fff2cc;strokeColor=#d6b656;" vertex="1" parent="1">
          <mxGeometry x="638.5" y="740" width="100" height="60" as="geometry" />
        </mxCell>
        <mxCell id="OLj2NTOSyPQ2jTsfkR1u-16" value="&lt;h1 style=&quot;margin-top: 0px; font-size: 11px;&quot;&gt;&lt;div style=&quot;text-align: justify;&quot;&gt;&lt;font face=&quot;Times New Roman&quot;&gt;&lt;span style=&quot;font-weight: normal;&quot;&gt;Evaluate the performance of the model by calculating the&lt;/span&gt; &lt;span class=&quot;katex&quot;&gt;&lt;span class=&quot;katex-mathml&quot;&gt;&lt;math xmlns=&quot;http://www.w3.org/1998/Math/MathML&quot;&gt;&lt;mrow&gt;&lt;msup&gt;&lt;mi&gt;R&lt;/mi&gt;&lt;mn&gt;2&lt;/mn&gt;&lt;/msup&gt;&lt;/mrow&gt;R^2&lt;/math&gt;&lt;/span&gt;&lt;/span&gt;&amp;nbsp;&lt;span style=&quot;font-weight: normal;&quot;&gt;value of the predictions against the actual values in the validation set.&lt;/span&gt;&lt;/font&gt;&lt;br&gt;&lt;/div&gt;&lt;/h1&gt;" style="text;html=1;whiteSpace=wrap;overflow=hidden;rounded=0;align=center;labelBorderColor=none;labelBackgroundColor=none;textShadow=0;fontStyle=0" vertex="1" parent="1">
          <mxGeometry x="618.5" y="840" width="140" height="76" as="geometry" />
        </mxCell>
        <mxCell id="OLj2NTOSyPQ2jTsfkR1u-17" style="edgeStyle=orthogonalEdgeStyle;shape=connector;rounded=0;orthogonalLoop=1;jettySize=auto;html=1;exitX=0.5;exitY=1;exitDx=0;exitDy=0;entryX=0.5;entryY=0;entryDx=0;entryDy=0;entryPerimeter=0;dashed=1;dashPattern=1 1;strokeColor=#d79b00;strokeWidth=1;align=center;verticalAlign=middle;fontFamily=Helvetica;fontSize=11;fontColor=default;labelBackgroundColor=default;endArrow=classic;fillColor=#ffe6cc;" edge="1" parent="1" source="OLj2NTOSyPQ2jTsfkR1u-11" target="OLj2NTOSyPQ2jTsfkR1u-15">
          <mxGeometry relative="1" as="geometry" />
        </mxCell>
        <mxCell id="OLj2NTOSyPQ2jTsfkR1u-23" style="edgeStyle=orthogonalEdgeStyle;shape=connector;rounded=0;orthogonalLoop=1;jettySize=auto;html=1;dashed=1;dashPattern=1 1;strokeColor=#6c8ebf;strokeWidth=1;align=center;verticalAlign=middle;fontFamily=Helvetica;fontSize=11;fontColor=default;labelBackgroundColor=default;endArrow=classic;fillColor=#dae8fc;exitX=0;exitY=0.5;exitDx=0;exitDy=0;" edge="1" parent="1" source="OLj2NTOSyPQ2jTsfkR1u-18" target="OLj2NTOSyPQ2jTsfkR1u-21">
          <mxGeometry relative="1" as="geometry">
            <mxPoint x="425" y="895" as="sourcePoint" />
          </mxGeometry>
        </mxCell>
        <mxCell id="OLj2NTOSyPQ2jTsfkR1u-18" value="&lt;font face=&quot;Times New Roman&quot;&gt;&lt;b&gt;Store &lt;/b&gt;&lt;/font&gt;&lt;span class=&quot;katex&quot;&gt;&lt;span class=&quot;katex-mathml&quot;&gt;&lt;math xmlns=&quot;http://www.w3.org/1998/Math/MathML&quot;&gt;&lt;mrow&gt;&lt;msup&gt;&lt;mi&gt;R&lt;/mi&gt;&lt;mn&gt;2&lt;/mn&gt;&lt;/msup&gt;&lt;/mrow&gt;R^2&lt;/math&gt;&lt;/span&gt;&lt;/span&gt;&amp;nbsp;&lt;font face=&quot;Times New Roman&quot;&gt;&lt;b&gt;and &lt;/b&gt;&lt;/font&gt;&lt;span class=&quot;katex&quot;&gt;&lt;span class=&quot;katex-mathml&quot;&gt;&lt;math xmlns=&quot;http://www.w3.org/1998/Math/MathML&quot;&gt;&lt;mrow&gt;&lt;mi&gt;α&lt;/mi&gt;&lt;/mrow&gt;&lt;/math&gt;&lt;/span&gt;&lt;/span&gt;" style="shape=document;whiteSpace=wrap;html=1;boundedLbl=1;dashed=0;flipH=1;fontFamily=Helvetica;fontSize=11;labelBackgroundColor=default;fillColor=#f8cecc;strokeColor=#b85450;" vertex="1" parent="1">
          <mxGeometry x="220" y="800" width="100" height="70" as="geometry" />
        </mxCell>
        <mxCell id="OLj2NTOSyPQ2jTsfkR1u-20" value="&lt;h1 style=&quot;margin-top: 0px; font-size: 11px;&quot;&gt;&lt;div style=&quot;text-align: justify;&quot;&gt;&lt;span style=&quot;font-weight: normal;&quot;&gt;&lt;font face=&quot;Times New Roman&quot;&gt;Save the&lt;/font&gt;&lt;/span&gt; &lt;span class=&quot;katex&quot;&gt;&lt;span class=&quot;katex-mathml&quot;&gt;&lt;math xmlns=&quot;http://www.w3.org/1998/Math/MathML&quot;&gt;&lt;mrow&gt;&lt;msup&gt;&lt;mi&gt;R&lt;/mi&gt;&lt;mn&gt;2&lt;/mn&gt;&lt;/msup&gt;&lt;/mrow&gt;R^2&lt;/math&gt;&lt;/span&gt;&lt;/span&gt;&amp;nbsp;&lt;span style=&quot;font-weight: normal;&quot;&gt;&lt;font face=&quot;Times New Roman&quot;&gt;value along with the corresponding&lt;/font&gt;&lt;/span&gt; &lt;span class=&quot;katex&quot;&gt;&lt;span class=&quot;katex-mathml&quot;&gt;&lt;math xmlns=&quot;http://www.w3.org/1998/Math/MathML&quot;&gt;&lt;mrow&gt;&lt;mi&gt;α&lt;/mi&gt;&lt;/mrow&gt;\alpha&lt;/math&gt;&lt;/span&gt;&lt;/span&gt;&lt;br&gt;&lt;/div&gt;&lt;/h1&gt;" style="text;html=1;whiteSpace=wrap;overflow=hidden;rounded=0;align=center;labelBorderColor=none;labelBackgroundColor=none;textShadow=0;fontStyle=0" vertex="1" parent="1">
          <mxGeometry x="200" y="890" width="140" height="40" as="geometry" />
        </mxCell>
        <mxCell id="OLj2NTOSyPQ2jTsfkR1u-45" style="edgeStyle=orthogonalEdgeStyle;shape=connector;rounded=0;orthogonalLoop=1;jettySize=auto;html=1;exitX=0;exitY=1;exitDx=0;exitDy=0;entryX=0;entryY=0.5;entryDx=0;entryDy=0;dashed=1;dashPattern=1 1;strokeColor=#9673a6;strokeWidth=2;align=center;verticalAlign=middle;fontFamily=Helvetica;fontSize=11;fontColor=default;labelBackgroundColor=default;endArrow=classic;fillColor=#e1d5e7;" edge="1" parent="1" source="OLj2NTOSyPQ2jTsfkR1u-21" target="OLj2NTOSyPQ2jTsfkR1u-44">
          <mxGeometry relative="1" as="geometry" />
        </mxCell>
        <mxCell id="OLj2NTOSyPQ2jTsfkR1u-21" value="&lt;strong&gt;&lt;font face=&quot;Times New Roman&quot;&gt;Adjust &lt;/font&gt;&lt;span class=&quot;katex&quot;&gt;&lt;span class=&quot;katex-mathml&quot;&gt;&lt;math xmlns=&quot;http://www.w3.org/1998/Math/MathML&quot;&gt;&lt;mrow&gt;&lt;mi&gt;α&lt;/mi&gt;&lt;/mrow&gt;\alpha&lt;/math&gt;&lt;/span&gt;&lt;/span&gt;&lt;/strong&gt;:" style="shape=collate;whiteSpace=wrap;html=1;fontFamily=Helvetica;fontSize=11;labelBackgroundColor=default;fillColor=#e1d5e7;strokeColor=#9673a6;" vertex="1" parent="1">
          <mxGeometry x="110" y="630" width="80" height="60" as="geometry" />
        </mxCell>
        <mxCell id="OLj2NTOSyPQ2jTsfkR1u-36" style="edgeStyle=orthogonalEdgeStyle;shape=connector;rounded=0;orthogonalLoop=1;jettySize=auto;html=1;dashed=1;dashPattern=1 1;strokeColor=#9673a6;strokeWidth=2;align=center;verticalAlign=middle;fontFamily=Helvetica;fontSize=11;fontColor=default;labelBackgroundColor=default;endArrow=classic;fillColor=#e1d5e7;entryX=0.5;entryY=1;entryDx=0;entryDy=0;" edge="1" parent="1" source="OLj2NTOSyPQ2jTsfkR1u-22" target="OLj2NTOSyPQ2jTsfkR1u-39">
          <mxGeometry relative="1" as="geometry">
            <mxPoint x="360" y="530.0000000000002" as="targetPoint" />
          </mxGeometry>
        </mxCell>
        <mxCell id="OLj2NTOSyPQ2jTsfkR1u-22" value="&lt;h1 style=&quot;margin-top: 0px; font-size: 11px;&quot;&gt;&lt;div style=&quot;text-align: justify;&quot;&gt;&lt;span style=&quot;font-weight: normal;&quot;&gt;&lt;font face=&quot;Times New Roman&quot;&gt;Increase the value of&lt;/font&gt;&lt;/span&gt; &lt;span class=&quot;katex&quot;&gt;&lt;span class=&quot;katex-mathml&quot;&gt;&lt;math xmlns=&quot;http://www.w3.org/1998/Math/MathML&quot;&gt;&lt;mrow&gt;&lt;mi&gt;&lt;b&gt;α&lt;/b&gt;&lt;/mi&gt;&lt;/mrow&gt;\alpha&lt;/math&gt;&lt;/span&gt;&lt;/span&gt;&lt;i&gt;. &lt;/i&gt;&lt;span style=&quot;font-weight: normal;&quot;&gt;&lt;font face=&quot;Times New Roman&quot;&gt;This can be done in increments or by using a logarithmic scale to cover a range of values efficiently&lt;/font&gt;&lt;/span&gt;&lt;i&gt;.&lt;/i&gt;&lt;br&gt;&lt;/div&gt;&lt;/h1&gt;" style="text;html=1;whiteSpace=wrap;overflow=hidden;rounded=0;align=center;labelBorderColor=none;labelBackgroundColor=none;textShadow=0;fontStyle=0" vertex="1" parent="1">
          <mxGeometry x="90" y="535" width="140" height="76" as="geometry" />
        </mxCell>
        <mxCell id="OLj2NTOSyPQ2jTsfkR1u-25" value="1" style="ellipse;whiteSpace=wrap;html=1;aspect=fixed;strokeWidth=2;fontFamily=Tahoma;spacingBottom=4;spacingRight=2;strokeColor=#b85450;fontSize=11;labelBackgroundColor=default;fillColor=#f8cecc;fillStyle=auto;" vertex="1" parent="1">
          <mxGeometry x="70" y="290" width="40" height="40" as="geometry" />
        </mxCell>
        <mxCell id="OLj2NTOSyPQ2jTsfkR1u-26" value="2" style="ellipse;whiteSpace=wrap;html=1;aspect=fixed;strokeWidth=2;fontFamily=Tahoma;spacingBottom=4;spacingRight=2;strokeColor=#6c8ebf;fontSize=11;labelBackgroundColor=default;fillColor=#dae8fc;" vertex="1" parent="1">
          <mxGeometry x="394" y="170" width="40" height="40" as="geometry" />
        </mxCell>
        <mxCell id="OLj2NTOSyPQ2jTsfkR1u-27" value="3" style="ellipse;whiteSpace=wrap;html=1;aspect=fixed;strokeWidth=2;fontFamily=Tahoma;spacingBottom=4;spacingRight=2;strokeColor=#82b366;fontSize=11;labelBackgroundColor=default;fillColor=#d5e8d4;" vertex="1" parent="1">
          <mxGeometry x="710" y="220" width="40" height="40" as="geometry" />
        </mxCell>
        <mxCell id="OLj2NTOSyPQ2jTsfkR1u-28" value="4" style="ellipse;whiteSpace=wrap;html=1;aspect=fixed;strokeWidth=2;fontFamily=Tahoma;spacingBottom=4;spacingRight=2;strokeColor=#d79b00;fontSize=11;labelBackgroundColor=default;fillColor=#ffe6cc;" vertex="1" parent="1">
          <mxGeometry x="740" y="490" width="40" height="40" as="geometry" />
        </mxCell>
        <mxCell id="OLj2NTOSyPQ2jTsfkR1u-29" value="5" style="ellipse;whiteSpace=wrap;html=1;aspect=fixed;strokeWidth=2;fontFamily=Tahoma;spacingBottom=4;spacingRight=2;strokeColor=#d6b656;fontSize=11;labelBackgroundColor=default;fillColor=#fff2cc;" vertex="1" parent="1">
          <mxGeometry x="700" y="700" width="40" height="40" as="geometry" />
        </mxCell>
        <mxCell id="OLj2NTOSyPQ2jTsfkR1u-32" value="6" style="ellipse;whiteSpace=wrap;html=1;aspect=fixed;strokeWidth=2;fontFamily=Tahoma;spacingBottom=4;spacingRight=2;strokeColor=#b85450;fontSize=11;labelBackgroundColor=default;fillColor=#f8cecc;" vertex="1" parent="1">
          <mxGeometry x="220" y="750" width="40" height="40" as="geometry" />
        </mxCell>
        <mxCell id="OLj2NTOSyPQ2jTsfkR1u-33" value="7" style="ellipse;whiteSpace=wrap;html=1;aspect=fixed;strokeWidth=2;fontFamily=Tahoma;spacingBottom=4;spacingRight=2;strokeColor=#9673a6;fontSize=11;labelBackgroundColor=default;fillColor=#e1d5e7;" vertex="1" parent="1">
          <mxGeometry x="60" y="620" width="40" height="40" as="geometry" />
        </mxCell>
        <mxCell id="OLj2NTOSyPQ2jTsfkR1u-39" value="&lt;b&gt;&lt;font face=&quot;Times New Roman&quot;&gt;Repeat&lt;/font&gt;&lt;/b&gt;" style="html=1;dashed=0;whiteSpace=wrap;shape=partialRectangle;right=0;fontFamily=Helvetica;fontSize=11;labelBackgroundColor=default;fillColor=#e1d5e7;strokeColor=#9673a6;" vertex="1" parent="1">
          <mxGeometry x="280" y="450" width="100" height="30" as="geometry" />
        </mxCell>
        <mxCell id="OLj2NTOSyPQ2jTsfkR1u-40" style="edgeStyle=orthogonalEdgeStyle;shape=connector;rounded=0;orthogonalLoop=1;jettySize=auto;html=1;exitX=1;exitY=0.5;exitDx=0;exitDy=0;entryX=0;entryY=0;entryDx=0;entryDy=52.5;entryPerimeter=0;dashed=1;dashPattern=1 1;strokeColor=#9673a6;strokeWidth=2;align=center;verticalAlign=middle;fontFamily=Helvetica;fontSize=11;fontColor=default;labelBackgroundColor=default;endArrow=classic;fillColor=#e1d5e7;" edge="1" parent="1" source="OLj2NTOSyPQ2jTsfkR1u-39" target="OLj2NTOSyPQ2jTsfkR1u-6">
          <mxGeometry relative="1" as="geometry" />
        </mxCell>
        <mxCell id="OLj2NTOSyPQ2jTsfkR1u-41" value="&lt;h1 style=&quot;margin-top: 0px; font-size: 11px;&quot;&gt;&lt;div style=&quot;text-align: justify;&quot;&gt;&lt;font face=&quot;Times New Roman&quot; style=&quot;font-weight: normal;&quot;&gt;Go back to step 3 with the new&amp;nbsp;&lt;span style=&quot;&quot; class=&quot;katex&quot;&gt;&lt;span class=&quot;katex-html&quot; aria-hidden=&quot;true&quot;&gt;&lt;span class=&quot;base&quot;&gt;&lt;span class=&quot;mord mathnormal&quot;&gt;α&lt;/span&gt;&lt;/span&gt;&lt;/span&gt;&lt;/span&gt;. Continue the process until a satisfactory range of&amp;nbsp;&lt;span style=&quot;&quot; class=&quot;katex&quot;&gt;&lt;span style=&quot;&quot; class=&quot;katex-mathml&quot;&gt;&lt;math xmlns=&quot;http://www.w3.org/1998/Math/MathML&quot;&gt;&lt;mrow&gt;&lt;mi&gt;&lt;span style=&quot;background-color: initial;&quot; class=&quot;katex&quot;&gt;&lt;font style=&quot;&quot;&gt;&lt;span style=&quot;&quot; class=&quot;katex-html&quot; aria-hidden=&quot;true&quot;&gt;&lt;span class=&quot;base&quot;&gt;&lt;span class=&quot;mord mathnormal&quot;&gt;α&amp;nbsp;&lt;/span&gt;&lt;/span&gt;&lt;/span&gt;&lt;span style=&quot;background-color: initial;&quot;&gt;values has been tested.&lt;/span&gt;&lt;/font&gt;&lt;/span&gt;&lt;/mi&gt;&lt;/mrow&gt;&lt;/math&gt;&lt;/span&gt;&lt;/span&gt;&lt;/font&gt;&lt;/div&gt;&lt;/h1&gt;" style="text;html=1;whiteSpace=wrap;overflow=hidden;rounded=0;align=center;labelBorderColor=none;labelBackgroundColor=none;textShadow=0;fontStyle=1" vertex="1" parent="1">
          <mxGeometry x="300" y="390" width="136" height="60" as="geometry" />
        </mxCell>
        <mxCell id="OLj2NTOSyPQ2jTsfkR1u-48" style="edgeStyle=orthogonalEdgeStyle;shape=connector;rounded=0;orthogonalLoop=1;jettySize=auto;html=1;exitX=1;exitY=0.5;exitDx=0;exitDy=0;entryX=0;entryY=0.5;entryDx=0;entryDy=0;dashed=1;dashPattern=1 1;strokeColor=#6c8ebf;strokeWidth=1;align=center;verticalAlign=middle;fontFamily=Helvetica;fontSize=11;fontColor=default;labelBackgroundColor=default;endArrow=classic;fillColor=#dae8fc;" edge="1" parent="1" source="OLj2NTOSyPQ2jTsfkR1u-44" target="OLj2NTOSyPQ2jTsfkR1u-47">
          <mxGeometry relative="1" as="geometry" />
        </mxCell>
        <mxCell id="OLj2NTOSyPQ2jTsfkR1u-44" value="&lt;font face=&quot;Times New Roman&quot;&gt;Select Optimal&lt;/font&gt; &lt;span style=&quot;&quot; class=&quot;katex&quot;&gt;&lt;span style=&quot;&quot; class=&quot;katex-mathml&quot;&gt;&lt;math xmlns=&quot;http://www.w3.org/1998/Math/MathML&quot;&gt;&lt;mrow&gt;&lt;mi&gt;&lt;b&gt;&lt;font face=&quot;Times New Roman&quot;&gt;α&lt;/font&gt;&lt;/b&gt;&lt;/mi&gt;&lt;/mrow&gt;\alpha&lt;/math&gt;&lt;/span&gt;&lt;br&gt;&lt;/span&gt;" style="shape=internalStorage;whiteSpace=wrap;html=1;dx=15;dy=15;rounded=1;arcSize=8;strokeWidth=0.5;fontFamily=Helvetica;fontSize=11;fontColor=#333333;labelBackgroundColor=default;fillColor=#f5f5f5;strokeColor=#666666;" vertex="1" parent="1">
          <mxGeometry x="45" y="950" width="125" height="70" as="geometry" />
        </mxCell>
        <mxCell id="OLj2NTOSyPQ2jTsfkR1u-46" value="&lt;h1 style=&quot;margin-top: 0px; font-size: 11px;&quot;&gt;&lt;div style=&quot;&quot;&gt;&lt;div style=&quot;text-align: justify;&quot;&gt;&lt;span style=&quot;background-color: initial; font-weight: normal;&quot;&gt;&lt;font face=&quot;Times New Roman&quot;&gt;After all iterations are complete, choose the&amp;nbsp;&lt;/font&gt;&lt;/span&gt;&lt;span style=&quot;background-color: initial; font-weight: normal; text-align: left;&quot;&gt;α&amp;nbsp;&lt;/span&gt;&lt;span style=&quot;background-color: initial; font-family: &amp;quot;Times New Roman&amp;quot;; font-weight: normal;&quot;&gt;that resulted in the highest R^2&lt;/span&gt;&lt;span style=&quot;background-color: initial; font-weight: normal;&quot;&gt;&amp;nbsp;&lt;/span&gt;&lt;font style=&quot;background-color: initial; font-weight: normal;&quot; face=&quot;Times New Roman&quot;&gt;value&lt;/font&gt;&lt;span style=&quot;background-color: initial; font-weight: normal;&quot;&gt;.&lt;/span&gt;&lt;/div&gt;&lt;/div&gt;&lt;/h1&gt;" style="text;html=1;whiteSpace=wrap;overflow=hidden;rounded=0;align=left;labelBorderColor=none;labelBackgroundColor=none;textShadow=0;fontStyle=0" vertex="1" parent="1">
          <mxGeometry x="37.5" y="1030" width="132.5" height="60" as="geometry" />
        </mxCell>
        <mxCell id="OLj2NTOSyPQ2jTsfkR1u-47" value="END" style="ellipse;html=1;shape=endState;fillColor=#000000;strokeColor=#ff0000;fontFamily=Helvetica;fontSize=11;fontColor=default;labelBackgroundColor=default;aspect=fixed;" vertex="1" parent="1">
          <mxGeometry x="294" y="1000" width="50" height="50" as="geometry" />
        </mxCell>
        <mxCell id="OLj2NTOSyPQ2jTsfkR1u-49" value="&lt;h1 style=&quot;margin-top: 0px; font-size: 11px;&quot;&gt;&lt;div style=&quot;&quot;&gt;&lt;div style=&quot;text-align: justify;&quot;&gt;&lt;span style=&quot;font-weight: normal;&quot;&gt;&lt;font face=&quot;Times New Roman&quot;&gt;The process concludes with the optimal &lt;/font&gt;&lt;/span&gt;&lt;span class=&quot;katex&quot;&gt;&lt;span class=&quot;katex-mathml&quot;&gt;&lt;math xmlns=&quot;http://www.w3.org/1998/Math/MathML&quot;&gt;&lt;mrow&gt;&lt;mi&gt;α&lt;/mi&gt;&lt;/mrow&gt;\alpha&lt;/math&gt;&lt;/span&gt;&lt;/span&gt;&amp;nbsp;&lt;span style=&quot;font-weight: normal;&quot;&gt;&lt;font face=&quot;Times New Roman&quot;&gt;selected&lt;/font&gt;&lt;/span&gt;.&lt;br&gt;&lt;/div&gt;&lt;/div&gt;&lt;/h1&gt;" style="text;html=1;whiteSpace=wrap;overflow=hidden;rounded=0;align=left;labelBorderColor=none;labelBackgroundColor=none;textShadow=0;fontStyle=0" vertex="1" parent="1">
          <mxGeometry x="254" y="1050" width="140" height="40" as="geometry" />
        </mxCell>
      </root>
    </mxGraphModel>
  </diagram>
</mxfile>
